{
  "accessors": [
    {
      "bufferView": 2,
      "componentType": 5126,
      "count": 679,
      "max": [
        1.177849292755127,
        0.19108036160469055,
        0.7114901542663574
      ],
      "min": [
        -1.177849292755127,
        -0.19108004868030548,
        -0.7114908695220947
      ],
      "type": "VEC3"
    },
    {
      "bufferView": 2,
      "byteOffset": 8148,
      "componentType": 5126,
      "count": 679,
      "max": [
        1.0,
        1.0,
        1.0
      ],
      "min": [
        -1.0,
        -1.0,
        -1.0
      ],
      "type": "VEC3"
    },
    {
      "bufferView": 3,
      "componentType": 5126,
      "count": 679,
      "max": [
        1.0,
        1.0,
        0.9999997615814209,
        1.0
      ],
      "min": [
        -0.9999929666519165,
        -1.0,
        -1.0,
        1.0
      ],
      "type": "VEC4"
    },
    {
      "bufferView": 1,
      "componentType": 5126,
      "count": 679,
      "max": [
        0.9911745190620422,
        0.9934641122817993
      ],
      "min": [
        0.00747867114841938,
        0.03160382807254791
      ],
      "type": "VEC2"
    },
    {
      "bufferView": 1,
      "byteOffset": 5432,
      "componentType": 5126,
      "count": 679,
      "max": [
        0.9911745190620422,
        0.9934641122817993
      ],
      "min": [
        0.00747867114841938,
        0.03160382807254791
      ],
      "type": "VEC2"
    },
    {
      "bufferView": 1,
      "byteOffset": 10864,
      "componentType": 5126,
      "count": 679,
      "max": [
        0.9911745190620422,
        0.9934641122817993
      ],
      "min": [
        0.00747867114841938,
        0.03160382807254791
      ],
      "type": "VEC2"
    },
    {
      "bufferView": 0,
      "componentType": 5125,
      "count": 2856,
      "type": "SCALAR"
    }
  ],
  "asset": {
    "extras": {
      "author": "plaggy (https://sketchfab.com/plaggy)",
      "license": "CC-BY-4.0 (http://creativecommons.org/licenses/by/4.0/)",
      "source": "https://sketchfab.com/3d-models/cc0-key-9-2b72a24dbf594086b02d168ea9280b89",
      "title": "CC0 - Key 9"
    },
    "generator": "Sketchfab-13.79.0",
    "version": "2.0"
  },
  "bufferViews": [
    {
      "buffer": 0,
      "byteLength": 11424,
      "name": "floatBufferViews",
      "target": 34963
    },
    {
      "buffer": 0,
      "byteLength": 16296,
      "byteOffset": 11424,
      "byteStride": 8,
      "name": "floatBufferViews",
      "target": 34962
    },
    {
      "buffer": 0,
      "byteLength": 16296,
      "byteOffset": 27720,
      "byteStride": 12,
      "name": "floatBufferViews",
      "target": 34962
    },
    {
      "buffer": 0,
      "byteLength": 10864,
      "byteOffset": 44016,
      "byteStride": 16,
      "name": "floatBufferViews",
      "target": 34962
    }
  ],
  "buffers": [
    {
      "byteLength": 54880,
      "uri": "scene.bin"
    }
  ],
  "images": [
    {
      "uri": "textures/Key9_baseColor.png"
    },
    {
      "uri": "textures/Key9_metallicRoughness.png"
    },
    {
      "uri": "textures/Key9_normal.png"
    }
  ],
  "materials": [
    {
      "name": "Key9",
      "normalTexture": {
        "index": 2
      },
      "occlusionTexture": {
        "index": 1
      },
      "pbrMetallicRoughness": {
        "baseColorTexture": {
          "index": 0
        },
        "metallicRoughnessTexture": {
          "index": 1
        }
      }
    }
  ],
  "meshes": [
    {
      "name": "Key9_Key9_0",
      "primitives": [
        {
          "attributes": {
            "NORMAL": 1,
            "POSITION": 0,
            "TANGENT": 2,
            "TEXCOORD_0": 3,
            "TEXCOORD_1": 4,
            "TEXCOORD_2": 5
          },
          "indices": 6,
          "material": 0,
          "mode": 4
        }
      ]
    }
  ],
  "nodes": [
    {
      "children": [
        1
      ],
      "matrix": [
        1.0,
        0.0,
        0.0,
        0.0,
        0.0,
        2.220446049250313e-16,
        -1.0,
        0.0,
        0.0,
        1.0,
        2.220446049250313e-16,
        0.0,
        0.0,
        0.0,
        0.0,
        1.0
      ],
      "name": "Sketchfab_model"
    },
    {
      "children": [
        2
      ],
      "matrix": [
        0.02539999969303608,
        0.0,
        0.0,
        0.0,
        0.0,
        0.0,
        0.02539999969303608,
        0.0,
        0.0,
        -0.02539999969303608,
        0.0,
        0.0,
        0.0,
        0.0,
        0.0,
        1.0
      ],
      "name": "9a5d16d7761b4d44a780ec5257c393ef.fbx"
    },
    {
      "children": [
        3
      ],
      "name": "RootNode"
    },
    {
      "children": [
        4
      ],
      "matrix": [
        0.797754213214283,
        0.5397598642620035,
        -0.26878895853573287,
        0.0,
        -0.08413255182252202,
        -0.3417674353818776,
        -0.9360110757017381,
        0.0,
        -0.5970845241862253,
        0.7693206802396242,
        -0.2272350367635927,
        0.0,
        0.0,
        0.0,
        -5.8981857620210576e-08,
        1.0
      ],
      "name": "Key9"
    },
    {
      "mesh": 0,
      "name": "Key9_Key9_0"
    }
  ],
  "samplers": [
    {
      "magFilter": 9729,
      "minFilter": 9987,
      "wrapS": 10497,
      "wrapT": 10497
    }
  ],
  "scene": 0,
  "scenes": [
    {
      "name": "Sketchfab_Scene",
      "nodes": [
        0
      ]
    }
  ],
  "textures": [
    {
      "sampler": 0,
      "source": 0
    },
    {
      "sampler": 0,
      "source": 1
    },
    {
      "sampler": 0,
      "source": 2
    }
  ]
}
